<svg xmlns="http://www.w3.org/2000/svg" shape-rendering="geometricPrecision" viewBox="0 0 1024 1024">
  <g fill="#000">
    <path d="m620 348-96 97-12 12-8-8-183-185 5 17a960 960 0 0 0 109 199c11 17 11 15 13 30l21 142 3 24 5 6 35 48 17-22 19-27 4-5 7-45 10-72 7-44 4-21 11-14a1030 1030 0 0 0 98-171l15-46zm-172 71 40 41 15 16v103l-1 103-5-7-5-6-4-22-13-93-7-41-5-27-12-17a1255 1255 0 0 1-77-124zm197-64a942 942 0 0 1-85 133l-5 27-6 41-13 87-3 25-6 8-6 7V475l16-16 113-115z"/>
    <path d="M317 346a257 257 0 0 0-60 201q11 72 59 130a260 260 0 0 0 228 90 260 260 0 0 0 223-291 259 259 0 0 0-67-137l-5 10-5 10 3 4 11 13q43 62 43 136 0 59-28 110c-25 48-70 88-120 108a238 238 0 0 1-318-260c6-35 25-76 47-104l6-7-4-10-6-10z"/>
    <path d="m441 345 14 16 56 65 71-79 2-3h-71zm102 18-31 35-31-36a464 464 0 0 1 62 1m-194 38a196 196 0 0 0 115 302l-6-9-7-13c-2-4-2-5-15-11a176 176 0 0 1-72-251l2-3-5-9c-7-13-7-13-12-6m316 4q-7 12-5 12a174 174 0 0 1-43 235c-9 7-26 17-35 21q-8 3-8 7l-8 14-7 10a203 203 0 0 0 141-130 198 198 0 0 0-27-176l-3-3z"/>
  </g>
</svg>
